<svg width="20" height="20" viewBox="0 0 20 20" fill="none" xmlns="http://www.w3.org/2000/svg">
<g id="Monotone add">
<path id="Vector" d="M2.23438 5C2.23438 4.76379 2.32821 4.53726 2.49523 4.37023C2.66226 4.20321 2.88879 4.10938 3.125 4.10938H16.875C17.1112 4.10938 17.3377 4.20321 17.5048 4.37023C17.6718 4.53726 17.7656 4.76379 17.7656 5C17.7656 5.23621 17.6718 5.46274 17.5048 5.62977C17.3377 5.79679 17.1112 5.89062 16.875 5.89062H3.125C2.88879 5.89062 2.66226 5.79679 2.49523 5.62977C2.32821 5.46274 2.23438 5.23621 2.23438 5ZM4.37023 7.49523C4.53726 7.32821 4.76379 7.23438 5 7.23438H15C15.2362 7.23438 15.4627 7.32821 15.6298 7.49523C15.7968 7.66226 15.8906 7.88879 15.8906 8.125C15.8906 8.36121 15.7968 8.58774 15.6298 8.75477C15.4627 8.92179 15.2362 9.01562 15 9.01562H5C4.76379 9.01562 4.53726 8.92179 4.37023 8.75477C4.20321 8.58774 4.10938 8.36121 4.10938 8.125C4.10938 7.88879 4.20321 7.66226 4.37023 7.49523ZM3.125 10.3594H16.875C17.1112 10.3594 17.3377 10.4532 17.5048 10.6202C17.6718 10.7873 17.7656 11.0138 17.7656 11.25C17.7656 11.4862 17.6718 11.7127 17.5048 11.8798C17.3377 12.0468 17.1112 12.1406 16.875 12.1406H3.125C2.88879 12.1406 2.66226 12.0468 2.49523 11.8798C2.32821 11.7127 2.23438 11.4862 2.23438 11.25C2.23438 11.0138 2.32821 10.7873 2.49523 10.6202C2.66226 10.4532 2.88879 10.3594 3.125 10.3594ZM5 13.4844H15C15.2362 13.4844 15.4627 13.5782 15.6298 13.7452C15.7968 13.9123 15.8906 14.1388 15.8906 14.375C15.8906 14.6112 15.7968 14.8377 15.6298 15.0048C15.4627 15.1718 15.2362 15.2656 15 15.2656H5C4.76379 15.2656 4.53726 15.1718 4.37023 15.0048C4.20321 14.8377 4.10938 14.6112 4.10938 14.375C4.10938 14.1388 4.20321 13.9123 4.37023 13.7452C4.53726 13.5782 4.76379 13.4844 5 13.4844Z" fill="#0E9594" stroke="#0E9594" stroke-width="0.09375"/>
</g>
</svg>
