<svg width="20" height="20" viewBox="0 0 20 20" fill="none" xmlns="http://www.w3.org/2000/svg">
<g id="Monotone add">
<path id="Vector" d="M2.23438 5C2.23438 4.76379 2.32821 4.53726 2.49523 4.37023C2.66226 4.20321 2.88879 4.10938 3.125 4.10938H16.875C17.1112 4.10938 17.3377 4.20321 17.5048 4.37023C17.6718 4.53726 17.7656 4.76379 17.7656 5C17.7656 5.23621 17.6718 5.46274 17.5048 5.62977C17.3377 5.79679 17.1112 5.89062 16.875 5.89062H3.125C2.88879 5.89062 2.66226 5.79679 2.49523 5.62977C2.32821 5.46274 2.23438 5.23621 2.23438 5ZM6.875 7.23438H16.875C17.1112 7.23438 17.3377 7.32821 17.5048 7.49523C17.6718 7.66226 17.7656 7.88879 17.7656 8.125C17.7656 8.36121 17.6718 8.58774 17.5048 8.75477C17.3377 8.92179 17.1112 9.01562 16.875 9.01562H6.875C6.63879 9.01562 6.41226 8.92179 6.24523 8.75477C6.07821 8.58774 5.98438 8.36121 5.98438 8.125C5.98438 7.88879 6.07821 7.66226 6.24523 7.49523C6.41226 7.32821 6.63879 7.23438 6.875 7.23438ZM3.125 10.3594H16.875C17.1112 10.3594 17.3377 10.4532 17.5048 10.6202C17.6718 10.7873 17.7656 11.0138 17.7656 11.25C17.7656 11.4862 17.6718 11.7127 17.5048 11.8798C17.3377 12.0468 17.1112 12.1406 16.875 12.1406H3.125C2.88879 12.1406 2.66226 12.0468 2.49523 11.8798C2.32821 11.7127 2.23438 11.4862 2.23438 11.25C2.23438 11.0138 2.32821 10.7873 2.49523 10.6202C2.66226 10.4532 2.88879 10.3594 3.125 10.3594ZM6.875 13.4844H16.875C17.1112 13.4844 17.3377 13.5782 17.5048 13.7452C17.6718 13.9123 17.7656 14.1388 17.7656 14.375C17.7656 14.6112 17.6718 14.8377 17.5048 15.0048C17.3377 15.1718 17.1112 15.2656 16.875 15.2656H6.875C6.63879 15.2656 6.41226 15.1718 6.24523 15.0048C6.07821 14.8377 5.98438 14.6112 5.98438 14.375C5.98438 14.1388 6.07821 13.9123 6.24523 13.7452C6.41226 13.5782 6.63879 13.4844 6.875 13.4844Z" fill="#0E9594" stroke="#0E9594" stroke-width="0.09375"/>
</g>
</svg>
