<svg width="20" height="20" viewBox="0 0 20 20" fill="none" xmlns="http://www.w3.org/2000/svg">
<path d="M19.726 9.72815C19.8135 9.64104 19.883 9.5375 19.9303 9.42347C19.9777 9.30944 20.0021 9.18718 20.0021 9.0637C20.0021 8.94022 19.9777 8.81795 19.9303 8.70393C19.883 8.5899 19.8135 8.48636 19.726 8.39925C19.6389 8.31185 19.5354 8.2425 19.4214 8.19518C19.3075 8.14786 19.1853 8.12351 19.0619 8.12351C18.9385 8.12351 18.8164 8.14786 18.7024 8.19518C18.5885 8.2425 18.485 8.31185 18.3979 8.39925L19.726 9.72815ZM19.726 9.72815L16.1049 13.3485L19.726 9.72815ZM19.6928 8.43233L19.6929 8.43247C19.7761 8.51522 19.842 8.61359 19.8871 8.72191C19.9321 8.83024 19.9552 8.94639 19.9552 9.0637C19.9552 9.18101 19.9321 9.29716 19.8871 9.40548C19.842 9.51381 19.7761 9.61217 19.6929 9.69493L19.6929 9.695L16.0718 13.3153L16.0717 13.3154C15.9313 13.4566 15.7644 13.5686 15.5805 13.6448C15.3966 13.721 15.1994 13.7599 15.0004 13.7594C14.8303 13.7587 14.6614 13.7297 14.5008 13.6737L14.473 13.664L14.4522 13.6848L12.9468 15.1903C12.9468 15.1903 12.9468 15.1903 12.9468 15.1903C12.6625 15.4745 12.2771 15.6341 11.8752 15.6341C11.4733 15.6341 11.0879 15.4745 10.8037 15.1903C10.8037 15.1903 10.8037 15.1903 10.8037 15.1903L10.6584 15.045L10.6252 15.0119L10.5921 15.045L8.13037 17.5044L8.13033 17.5044C8.04762 17.5872 7.94939 17.6529 7.84127 17.6977C7.73315 17.7426 7.61726 17.7656 7.50021 17.7657H7.50015C7.40459 17.7658 7.30965 17.7502 7.21911 17.7197L7.21894 17.7196L1.59394 15.8446L1.59391 15.8446C1.44983 15.7967 1.32039 15.7127 1.21789 15.6007C1.1154 15.4887 1.04324 15.3523 1.00829 15.2045C0.973339 15.0567 0.976747 14.9025 1.01819 14.7564C1.05964 14.6103 1.13774 14.4773 1.24508 14.3699L5.58024 10.0332L5.61311 10.0003L5.5805 9.96715L5.43754 9.82184L5.43727 9.82157C5.15313 9.53735 4.99352 9.15192 4.99352 8.75003C4.99352 8.34814 5.15313 7.9627 5.43727 7.67848L6.94352 6.17223L6.96433 6.15142L6.95462 6.12363C6.86068 5.85474 6.8444 5.56481 6.90767 5.2871C6.97093 5.00938 7.11117 4.75511 7.31231 4.55344L10.9334 0.930829C11.1007 0.763499 11.3276 0.669495 11.5643 0.669495C11.8009 0.669495 12.0279 0.763499 12.1952 0.930829C12.3625 1.09816 12.4565 1.32511 12.4565 1.56175C12.4565 1.79839 12.3625 2.02533 12.1952 2.19266L8.7952 5.59188L8.76204 5.62502L8.79519 5.65817L14.9671 11.83L15.0002 11.8632L15.0334 11.83L18.431 8.43239L18.4311 8.43233C18.5138 8.3493 18.6121 8.28342 18.7204 8.23847C18.8286 8.19352 18.9447 8.17038 19.0619 8.17038C19.1791 8.17038 19.2952 8.19352 19.4035 8.23847C19.5117 8.28342 19.61 8.3493 19.6928 8.43233ZM10.6252 15.0782L10.5921 15.1113L8.1635 17.5375C8.07643 17.6247 7.97304 17.6939 7.85923 17.741C7.74541 17.7882 7.62342 17.8125 7.50021 17.8125C7.39953 17.8127 7.29951 17.7963 7.20412 17.7641L1.57912 15.8891C1.42745 15.8386 1.2912 15.7503 1.18331 15.6323C1.07542 15.5144 0.999467 15.3708 0.962675 15.2153C0.925883 15.0598 0.92947 14.8974 0.973096 14.7436C1.01672 14.5899 1.09894 14.4498 1.21193 14.3367L5.54709 10L5.40412 9.85471C5.1112 9.5617 4.94664 9.16434 4.94664 8.75003C4.94664 8.33571 5.1112 7.93835 5.40412 7.64534L10.6252 15.0782ZM7.23227 15.8468L7.25977 15.856L7.28025 15.8355L9.33025 13.7832L9.36336 13.75L9.33023 13.7169L6.90836 11.295L6.87523 11.2619L6.84208 11.295L3.57724 14.5575L3.52356 14.6111L3.59555 14.6351L7.23227 15.8468ZM11.8421 13.7051L11.8752 13.7382L11.9084 13.705L13.0802 12.5332L13.1134 12.5L13.0802 12.4669L8.15836 7.54501L8.12521 7.51186L8.09207 7.54501L6.92019 8.71688L6.88711 8.74996L6.92013 8.78311L7.50528 9.37061L7.50536 9.37068L11.8421 13.7051Z" fill="#0E9594" stroke="#0E9594" stroke-width="0.09375"/>
</svg>
