<svg width="36" height="36" viewBox="0 0 36 36" fill="none" xmlns="http://www.w3.org/2000/svg">
<path d="M34.25 16.75H32.9469C32.6469 13.2179 31.1075 9.90563 28.6009 7.39905C26.0944 4.89248 22.7821 3.35308 19.25 3.05312V1.75C19.25 1.41848 19.1183 1.10054 18.8839 0.866116C18.6495 0.631696 18.3315 0.5 18 0.5C17.6685 0.5 17.3505 0.631696 17.1161 0.866116C16.8817 1.10054 16.75 1.41848 16.75 1.75V3.05312C13.2179 3.35308 9.90563 4.89248 7.39905 7.39905C4.89248 9.90563 3.35308 13.2179 3.05312 16.75H1.75C1.41848 16.75 1.10054 16.8817 0.866116 17.1161C0.631696 17.3505 0.5 17.6685 0.5 18C0.5 18.3315 0.631696 18.6495 0.866116 18.8839C1.10054 19.1183 1.41848 19.25 1.75 19.25H3.05312C3.35308 22.7821 4.89248 26.0944 7.39905 28.6009C9.90563 31.1075 13.2179 32.6469 16.75 32.9469V34.25C16.75 34.5815 16.8817 34.8995 17.1161 35.1339C17.3505 35.3683 17.6685 35.5 18 35.5C18.3315 35.5 18.6495 35.3683 18.8839 35.1339C19.1183 34.8995 19.25 34.5815 19.25 34.25V32.9469C22.7821 32.6469 26.0944 31.1075 28.6009 28.6009C31.1075 26.0944 32.6469 22.7821 32.9469 19.25H34.25C34.5815 19.25 34.8995 19.1183 35.1339 18.8839C35.3683 18.6495 35.5 18.3315 35.5 18C35.5 17.6685 35.3683 17.3505 35.1339 17.1161C34.8995 16.8817 34.5815 16.75 34.25 16.75ZM19.25 30.4375V29.25C19.25 28.9185 19.1183 28.6005 18.8839 28.3661C18.6495 28.1317 18.3315 28 18 28C17.6685 28 17.3505 28.1317 17.1161 28.3661C16.8817 28.6005 16.75 28.9185 16.75 29.25V30.4375C13.8826 30.1449 11.2039 28.8722 9.16584 26.8342C7.12777 24.7961 5.85508 22.1174 5.5625 19.25H6.75C7.08152 19.25 7.39946 19.1183 7.63388 18.8839C7.8683 18.6495 8 18.3315 8 18C8 17.6685 7.8683 17.3505 7.63388 17.1161C7.39946 16.8817 7.08152 16.75 6.75 16.75H5.5625C5.85508 13.8826 7.12777 11.2039 9.16584 9.16584C11.2039 7.12777 13.8826 5.85508 16.75 5.5625V6.75C16.75 7.08152 16.8817 7.39946 17.1161 7.63388C17.3505 7.8683 17.6685 8 18 8C18.3315 8 18.6495 7.8683 18.8839 7.63388C19.1183 7.39946 19.25 7.08152 19.25 6.75V5.5625C22.1174 5.85508 24.7961 7.12777 26.8342 9.16584C28.8722 11.2039 30.1449 13.8826 30.4375 16.75H29.25C28.9185 16.75 28.6005 16.8817 28.3661 17.1161C28.1317 17.3505 28 17.6685 28 18C28 18.3315 28.1317 18.6495 28.3661 18.8839C28.6005 19.1183 28.9185 19.25 29.25 19.25H30.4375C30.1449 22.1174 28.8722 24.7961 26.8342 26.8342C24.7961 28.8722 22.1174 30.1449 19.25 30.4375ZM18 11.75C16.7639 11.75 15.5555 12.1166 14.5277 12.8033C13.4999 13.4901 12.6988 14.4662 12.2258 15.6082C11.7527 16.7503 11.6289 18.0069 11.8701 19.2193C12.1112 20.4317 12.7065 21.5453 13.5806 22.4194C14.4547 23.2935 15.5683 23.8888 16.7807 24.1299C17.9931 24.3711 19.2497 24.2473 20.3918 23.7742C21.5338 23.3012 22.5099 22.5001 23.1967 21.4723C23.8834 20.4445 24.25 19.2361 24.25 18C24.25 16.3424 23.5915 14.7527 22.4194 13.5806C21.2473 12.4085 19.6576 11.75 18 11.75ZM18 21.75C17.2583 21.75 16.5333 21.5301 15.9166 21.118C15.2999 20.706 14.8193 20.1203 14.5355 19.4351C14.2516 18.7498 14.1774 17.9958 14.3221 17.2684C14.4667 16.541 14.8239 15.8728 15.3483 15.3483C15.8728 14.8239 16.541 14.4667 17.2684 14.3221C17.9958 14.1774 18.7498 14.2516 19.4351 14.5355C20.1203 14.8193 20.706 15.2999 21.118 15.9166C21.5301 16.5333 21.75 17.2583 21.75 18C21.75 18.9946 21.3549 19.9484 20.6517 20.6517C19.9484 21.3549 18.9946 21.75 18 21.75Z" fill="#F0F0F0"/>
</svg>
