<svg width="24" height="24" viewBox="0 0 24 24" fill="none" xmlns="http://www.w3.org/2000/svg">
<g id="vuesax/bold/facebook">
<g id="facebook">
<path id="Vector" d="M21.9993 16.19C21.9993 19.83 19.8293 22 16.1893 22H14.9993C14.4493 22 13.9993 21.55 13.9993 21V15.23C13.9993 14.96 14.2193 14.73 14.4893 14.73L16.2493 14.7C16.3893 14.69 16.5093 14.59 16.5393 14.45L16.8893 12.54C16.9193 12.36 16.7793 12.19 16.5893 12.19L14.4593 12.22C14.1793 12.22 13.9593 12 13.9493 11.73L13.9093 9.28C13.9093 9.12 14.0393 8.98001 14.2093 8.98001L16.6093 8.94C16.7793 8.94 16.9093 8.81002 16.9093 8.64002L16.8693 6.23999C16.8693 6.06999 16.7393 5.94 16.5693 5.94L13.8693 5.98001C12.2093 6.01001 10.8893 7.37 10.9193 9.03L10.9693 11.78C10.9793 12.06 10.7593 12.28 10.4793 12.29L9.27927 12.31C9.10927 12.31 8.97928 12.44 8.97928 12.61L9.00928 14.51C9.00928 14.68 9.13927 14.81 9.30927 14.81L10.5093 14.79C10.7893 14.79 11.0093 15.01 11.0193 15.28L11.1093 20.98C11.1193 21.54 10.6693 22 10.1093 22H7.80927C4.16927 22 1.99927 19.83 1.99927 16.18V7.81C1.99927 4.17 4.16927 2 7.80927 2H16.1893C19.8293 2 21.9993 4.17 21.9993 7.81V16.19Z" fill="white"/>
</g>
</g>
</svg>
