<svg width="20" height="20" viewBox="0 0 20 20" fill="none" xmlns="http://www.w3.org/2000/svg">
<g id="Monotone add">
<path id="Vector" d="M6.49511 12.2078L6.49508 12.2075C6.45578 11.9247 6.35968 11.6528 6.21257 11.4081C6.06545 11.1634 5.87036 10.9509 5.63903 10.7836L5.63897 10.7835C5.17737 10.4485 4.60412 10.3049 4.03908 10.3827C3.47412 10.4606 2.96111 10.7538 2.60731 11.2011C2.47178 11.3753 2.3643 11.5696 2.28878 11.777C2.21156 11.998 2.22449 12.2406 2.32477 12.4522C2.4251 12.6638 2.60477 12.8275 2.82488 12.9076C3.04499 12.9877 3.28781 12.9779 3.50074 12.8803C3.71368 12.7827 3.87958 12.6051 3.96251 12.386L3.96282 12.3852L3.96283 12.3852C3.97576 12.3529 3.99331 12.3226 4.01494 12.2954L4.01551 12.2947L4.01552 12.2947C4.08369 12.2121 4.18079 12.1587 4.287 12.1453C4.39302 12.1319 4.50015 12.1594 4.5866 12.2222M6.49511 12.2078L2.41188 15.7174L4.65218 12.7217L4.65248 12.7213L4.66199 12.7089C4.69003 12.674 4.71068 12.6337 4.72268 12.5905C4.73473 12.5472 4.7378 12.5018 4.7317 12.4572L4.73166 12.4569C4.72489 12.4098 4.70848 12.3646 4.68343 12.3242C4.65849 12.2839 4.62553 12.2492 4.5866 12.2222M6.49511 12.2078C6.53526 12.4861 6.51908 12.7697 6.44754 13.0417C6.37599 13.3137 6.25054 13.5686 6.07862 13.7912L6.07818 13.7918L4.96255 15.2847L4.90656 15.3597M6.49511 12.2078L4.90656 15.3597M4.5866 12.2222C4.58644 12.2221 4.58628 12.222 4.58612 12.2219L4.55948 12.2604L4.58707 12.2226C4.58692 12.2224 4.58676 12.2223 4.5866 12.2222ZM4.90656 15.3597H5.0001M4.90656 15.3597H5.0001M5.0001 15.3597H5.6251C5.86131 15.3597 6.08784 15.4535 6.25487 15.6205C6.42189 15.7876 6.51573 16.0141 6.51573 16.2503C6.51573 16.4865 6.42189 16.713 6.25487 16.8801C6.08784 17.0471 5.86131 17.1409 5.6251 17.1409H3.12512C3.12511 17.1409 3.12511 17.1409 3.1251 17.1409C2.9599 17.1408 2.79797 17.0948 2.65742 17.008C2.51686 16.9212 2.40323 16.797 2.32922 16.6493C2.25521 16.5015 2.22375 16.3362 2.23835 16.1716C2.25294 16.007 2.31302 15.8498 2.41186 15.7174L5.0001 15.3597ZM3.48448 4.63076V4.5662L3.42309 4.58619C3.21129 4.65517 2.98133 4.64228 2.77857 4.55006C2.57581 4.45784 2.41496 4.29299 2.32776 4.08802C2.24055 3.88305 2.23332 3.65285 2.30748 3.44281C2.38158 3.23296 2.53156 3.05846 2.72787 2.95366L3.97729 2.32895C3.97729 2.32895 3.9773 2.32894 3.97731 2.32894C4.11305 2.26118 4.26386 2.22921 4.41542 2.23608C4.56699 2.24295 4.7143 2.28843 4.84336 2.3682C4.97242 2.44797 5.07897 2.5594 5.15288 2.6919C5.2268 2.8244 5.26564 2.97359 5.26573 3.12532V8.12529C5.26573 8.3615 5.17189 8.58804 5.00487 8.75506C4.83784 8.92209 4.61131 9.01592 4.3751 9.01592C4.13889 9.01592 3.91236 8.92209 3.74533 8.75506C3.57831 8.58804 3.48448 8.3615 3.48448 8.12529V4.63389V4.63076ZM17.7657 10.0003C17.7657 10.2365 17.6719 10.463 17.5049 10.6301C17.3378 10.7971 17.1113 10.8909 16.8751 10.8909H9.0626C8.82639 10.8909 8.59986 10.7971 8.43283 10.6301C8.26581 10.463 8.17198 10.2365 8.17198 10.0003C8.17198 9.76408 8.26581 9.53755 8.43283 9.37053C8.59986 9.2035 8.82639 9.10967 9.0626 9.10967H16.8751C17.1113 9.10967 17.3378 9.2035 17.5049 9.37053C17.6719 9.53755 17.7657 9.76408 17.7657 10.0003ZM16.8751 5.89092H9.0626C8.82639 5.89092 8.59986 5.79708 8.43283 5.63006C8.26581 5.46304 8.17198 5.2365 8.17198 5.00029C8.17198 4.76408 8.26581 4.53755 8.43283 4.37053C8.59986 4.2035 8.82639 4.10967 9.0626 4.10967H16.8751C17.1113 4.10967 17.3378 4.2035 17.5049 4.37053C17.6719 4.53755 17.7657 4.76408 17.7657 5.00029C17.7657 5.2365 17.6719 5.46304 17.5049 5.63006C17.3378 5.79708 17.1113 5.89092 16.8751 5.89092ZM9.0626 14.1097H16.8751C17.1113 14.1097 17.3378 14.2035 17.5049 14.3705C17.6719 14.5376 17.7657 14.7641 17.7657 15.0003C17.7657 15.2365 17.6719 15.463 17.5049 15.6301C17.3378 15.7971 17.1113 15.8909 16.8751 15.8909H9.0626C8.82639 15.8909 8.59986 15.7971 8.43283 15.6301C8.26581 15.463 8.17198 15.2365 8.17198 15.0003C8.17198 14.7641 8.26581 14.5376 8.43283 14.3705C8.59986 14.2035 8.82639 14.1097 9.0626 14.1097Z" fill="#0E9594" stroke="#0E9594" stroke-width="0.09375"/>
</g>
</svg>
