<svg width="28" height="28" viewBox="0 0 28 28" fill="none" xmlns="http://www.w3.org/2000/svg">
<g id="Adventure tourism icon">
<path id="Vector" d="M17.9374 8.75C18.5431 8.75 19.1352 8.57039 19.6388 8.23388C20.1425 7.89737 20.535 7.41907 20.7668 6.85947C20.9986 6.29987 21.0592 5.6841 20.941 5.09004C20.8229 4.49597 20.5312 3.95029 20.1029 3.52199C19.6746 3.09369 19.1289 2.80201 18.5349 2.68385C17.9408 2.56568 17.325 2.62633 16.7654 2.85812C16.2058 3.08991 15.7275 3.48244 15.391 3.98607C15.0545 4.48969 14.8749 5.0818 14.8749 5.6875C14.8749 6.49973 15.1975 7.27869 15.7719 7.85302C16.3462 8.42735 17.1252 8.75 17.9374 8.75ZM17.9374 4.375C18.197 4.375 18.4507 4.45198 18.6666 4.5962C18.8824 4.74042 19.0506 4.9454 19.15 5.18523C19.2493 5.42506 19.2753 5.68896 19.2247 5.94356C19.174 6.19816 19.049 6.43202 18.8655 6.61558C18.6819 6.79914 18.448 6.92414 18.1934 6.97478C17.9388 7.02542 17.6749 6.99943 17.4351 6.90009C17.1953 6.80075 16.9903 6.63253 16.8461 6.41669C16.7019 6.20085 16.6249 5.94709 16.6249 5.6875C16.6249 5.3394 16.7632 5.00557 17.0093 4.75942C17.2555 4.51328 17.5893 4.375 17.9374 4.375ZM27.8774 21.4288L21.9099 11.3575C21.756 11.0951 21.5359 10.8778 21.2715 10.7273C21.0072 10.5768 20.708 10.4984 20.4038 10.5C20.0998 10.4984 19.8007 10.5768 19.5365 10.7273C19.2724 10.8778 19.0524 11.0952 18.8988 11.3575L16.0375 16.1875L11.1332 7.86406C10.9786 7.60141 10.7582 7.38367 10.4936 7.23239C10.2291 7.0811 9.92964 7.00152 9.62489 7.00152C9.32015 7.00152 9.02069 7.0811 8.75615 7.23239C8.4916 7.38367 8.27115 7.60141 8.11661 7.86406L0.121299 21.4309C0.0430379 21.5638 0.00128291 21.715 0.000263273 21.8692C-0.000756362 22.0234 0.0389956 22.1752 0.115493 22.3091C0.19199 22.443 0.302515 22.5543 0.435872 22.6317C0.56923 22.7091 0.720684 22.7499 0.874893 22.75H27.1249C27.2793 22.75 27.431 22.7091 27.5645 22.6314C27.698 22.5538 27.8086 22.4422 27.8851 22.308C27.9615 22.1738 28.0011 22.0218 27.9997 21.8674C27.9984 21.7129 27.9562 21.5616 27.8774 21.4288ZM9.62489 8.75L12.2029 13.125H7.04692L9.62489 8.75ZM2.40614 21L6.01552 14.875H13.2343L15.284 18.3531L16.8436 21H2.40614ZM18.8747 21L17.0525 17.9069L20.4038 12.25L25.5936 21H18.8747Z" fill="#562C2C"/>
</g>
</svg>
