<svg width="20" height="20" viewBox="0 0 20 20" fill="none" xmlns="http://www.w3.org/2000/svg">
<g id="Monotone add">
<path id="Vector" d="M4.62084 13.9311L4.62073 13.9311C4.51487 13.8813 4.41985 13.8111 4.34111 13.7246C4.26237 13.6381 4.20144 13.5369 4.16181 13.4268C4.12218 13.3168 4.10462 13.2 4.11014 13.0831C4.11566 12.9662 4.14415 12.8516 4.19397 12.7458L4.15156 12.7258L4.19398 12.7458L9.19398 2.12077L9.19398 2.12075C9.26591 1.96775 9.3799 1.83837 9.52263 1.74775C9.66536 1.65713 9.83093 1.60901 10 1.60901C10.1691 1.60901 10.3346 1.65713 10.4774 1.74775C10.6201 1.83837 10.7341 1.96775 10.806 2.12075L10.806 2.12077L15.806 12.7458C15.9066 12.9595 15.9182 13.2045 15.8381 13.4268C15.7581 13.6491 15.593 13.8305 15.3793 13.9311C15.1655 14.0316 14.9205 14.0432 14.6982 13.9632C14.476 13.8831 14.2946 13.7181 14.194 13.5043L12.9768 10.9176L12.9641 10.8907H12.9344H7.06563H7.03585L7.0232 10.9176L5.80835 13.5043L5.80834 13.5043C5.75856 13.6105 5.68831 13.7058 5.60163 13.7847C5.51495 13.8636 5.41353 13.9247 5.30321 13.9643C5.19288 14.004 5.07581 14.0214 4.95871 14.0157C4.84162 14.01 4.7268 13.9813 4.62084 13.9311ZM10.0424 4.68163L10 4.59151L9.95759 4.68163L7.90524 9.04257L7.87379 9.10941H7.94766H12.0523H12.1262L12.0948 9.04257L10.0424 4.68163ZM17.7656 16.875C17.7656 17.1112 17.6718 17.3378 17.5048 17.5048C17.3377 17.6718 17.1112 17.7657 16.875 17.7657H3.125C2.88879 17.7657 2.66226 17.6718 2.49523 17.5048C2.32821 17.3378 2.23438 17.1112 2.23438 16.875C2.23438 16.6388 2.32821 16.4123 2.49523 16.2453C2.66226 16.0782 2.88879 15.9844 3.125 15.9844H16.875C17.1112 15.9844 17.3377 16.0782 17.5048 16.2453C17.6718 16.4123 17.7656 16.6388 17.7656 16.875Z" fill="#0E9594" stroke="#0E9594" stroke-width="0.09375"/>
</g>
</svg>
