<svg width="20" height="20" viewBox="0 0 20 20" fill="none" xmlns="http://www.w3.org/2000/svg">
<g id="Monotone add">
<path id="Vector" d="M15.8906 17.5C15.8906 17.7362 15.7968 17.9627 15.6298 18.1298C15.4627 18.2968 15.2362 18.3906 15 18.3906H5C4.76379 18.3906 4.53726 18.2968 4.37023 18.1298C4.20321 17.9627 4.10938 17.7362 4.10938 17.5C4.10938 17.2638 4.20321 17.0373 4.37023 16.8702C4.53726 16.7032 4.76379 16.6094 5 16.6094H15C15.2362 16.6094 15.4627 16.7032 15.6298 16.8702C15.7968 17.0373 15.8906 17.2638 15.8906 17.5ZM13.7218 13.7218C12.7346 14.7089 11.3961 15.2642 10 15.2656C8.60391 15.2642 7.26542 14.7089 6.27824 13.7218C5.29105 12.7346 4.73581 11.3961 4.73438 9.99995V4.375C4.73438 4.13879 4.82821 3.91226 4.99523 3.74523C5.16226 3.57821 5.38879 3.48438 5.625 3.48438C5.86121 3.48438 6.08774 3.57821 6.25477 3.74523C6.42179 3.91226 6.51562 4.13879 6.51562 4.375V10C6.51562 10.9241 6.88273 11.8104 7.53617 12.4638C8.18962 13.1173 9.07589 13.4844 10 13.4844C10.9241 13.4844 11.8104 13.1173 12.4638 12.4638C13.1173 11.8104 13.4844 10.9241 13.4844 10V4.375C13.4844 4.13879 13.5782 3.91226 13.7452 3.74523C13.9123 3.57821 14.1388 3.48438 14.375 3.48438C14.6112 3.48438 14.8377 3.57821 15.0048 3.74523C15.1718 3.91226 15.2656 4.13879 15.2656 4.375V9.99995C15.2642 11.3961 14.709 12.7346 13.7218 13.7218Z" fill="#0E9594" stroke="#0E9594" stroke-width="0.09375"/>
</g>
</svg>
