<svg width="20" height="20" viewBox="0 0 20 20" fill="none" xmlns="http://www.w3.org/2000/svg">
<g id="Monotone add">
<path id="Vector" d="M17.2344 10.9375V10.8906H17.1875H14.0625C13.8263 10.8906 13.5998 10.7968 13.4327 10.6298C13.2657 10.4627 13.1719 10.2362 13.1719 10C13.1719 9.7638 13.2657 9.53726 13.4327 9.37024C13.5998 9.20322 13.8263 9.10938 14.0625 9.10938H17.5C17.902 9.10938 18.2875 9.26906 18.5717 9.5533C18.8559 9.83753 19.0156 10.223 19.0156 10.625V15.625C19.0156 16.027 18.8559 16.4125 18.5717 16.6967C18.2875 16.981 17.902 17.1406 17.5 17.1406H2.5C2.09803 17.1406 1.71253 16.981 1.42829 16.6967C1.14406 16.4125 0.984375 16.027 0.984375 15.625V10.625C0.984375 10.223 1.14406 9.83753 1.42829 9.5533C1.71253 9.26906 2.09803 9.10938 2.5 9.10938H5.9375C6.17371 9.10938 6.40024 9.20322 6.56727 9.37024C6.73429 9.53726 6.82812 9.7638 6.82812 10C6.82812 10.2362 6.73429 10.4627 6.56727 10.6298C6.40024 10.7968 6.17371 10.8906 5.9375 10.8906H2.8125H2.76562V10.9375V15.3125V15.3594H2.8125H17.1875H17.2344V15.3125V10.9375ZM6.88015 6.25513L6.85295 6.28231L6.85406 6.28397C6.68981 6.4347 6.47463 6.51882 6.25078 6.51882C6.01414 6.51882 5.78719 6.42482 5.61986 6.25749C5.45254 6.09016 5.35853 5.86321 5.35853 5.62657C5.35853 5.5094 5.38161 5.39337 5.42645 5.28512C5.47129 5.17687 5.53701 5.07851 5.61986 4.99565L9.36986 1.24565L9.36992 1.24559C9.45266 1.16256 9.55098 1.09669 9.65924 1.05173C9.7675 1.00678 9.88356 0.983643 10.0008 0.983643C10.118 0.983643 10.2341 1.00678 10.3423 1.05173C10.4506 1.09669 10.5489 1.16256 10.6316 1.2456L10.6317 1.24565L14.3817 4.99565C14.4646 5.07851 14.5303 5.17687 14.5751 5.28512C14.62 5.39337 14.643 5.5094 14.643 5.62657C14.643 5.74374 14.62 5.85977 14.5751 5.96802C14.5303 6.07627 14.4646 6.17463 14.3817 6.25749C14.2988 6.34034 14.2005 6.40606 14.0922 6.4509C13.984 6.49574 13.868 6.51882 13.7508 6.51882C13.6336 6.51882 13.5176 6.49574 13.4093 6.4509C13.3011 6.40606 13.2027 6.34034 13.1199 6.25749C13.1199 6.25749 13.1199 6.25749 13.1199 6.25749L10.9707 4.10749L10.8906 4.02744V4.14063V10C10.8906 10.2362 10.7968 10.4627 10.6298 10.6298C10.4627 10.7968 10.2362 10.8906 10 10.8906C9.76379 10.8906 9.53726 10.7968 9.37023 10.6298C9.20321 10.4627 9.10938 10.2362 9.10938 10V4.14063V4.02752L9.02937 4.10747L6.88015 6.25513ZM14.6875 14.3281C14.4495 14.3281 14.2169 14.2576 14.0191 14.1254C13.8212 13.9932 13.667 13.8053 13.576 13.5854C13.4849 13.3656 13.4611 13.1237 13.5075 12.8903C13.5539 12.6569 13.6685 12.4425 13.8368 12.2743C14.005 12.106 14.2194 11.9914 14.4528 11.945C14.6862 11.8986 14.9281 11.9224 15.1479 12.0135C15.3678 12.1045 15.5557 12.2587 15.6879 12.4566C15.8201 12.6544 15.8906 12.8871 15.8906 13.125C15.8906 13.4441 15.7639 13.7501 15.5382 13.9757C15.3126 14.2014 15.0066 14.3281 14.6875 14.3281Z" fill="#0E9594" stroke="#0E9594" stroke-width="0.09375"/>
</g>
</svg>
